<mxfile host="www.draw.io" modified="2020-01-28T18:08:33.923Z" agent="Mozilla/5.0 (X11; Linux x86_64; rv:72.0) Gecko/20100101 Firefox/72.0" etag="iusag4qKbkTpJMfnPmbb" version="12.6.1" type="github">
  <diagram name="Page-1" id="97916047-d0de-89f5-080d-49f4d83e522f">
    <mxGraphModel dx="1240" dy="613" grid="1" gridSize="10" guides="1" tooltips="1" connect="1" arrows="1" fold="1" page="1" pageScale="1.5" pageWidth="1169" pageHeight="827" background="#ffffff" math="0" shadow="0">
      <root>
        <mxCell id="0"/>
        <mxCell id="1" parent="0"/>
        <mxCell id="6P5rHjWisykfpdkxlgF0-66" style="edgeStyle=orthogonalEdgeStyle;rounded=1;orthogonalLoop=1;jettySize=auto;html=1;entryX=1;entryY=0.5;entryDx=0;entryDy=0;strokeWidth=3;fillColor=#e1d5e7;strokeColor=#9673a6;" edge="1" parent="1" source="wQEkFAXj18bgEXl9lPni-55" target="6P5rHjWisykfpdkxlgF0-55">
          <mxGeometry relative="1" as="geometry"/>
        </mxCell>
        <mxCell id="6P5rHjWisykfpdkxlgF0-78" value="" style="edgeStyle=orthogonalEdgeStyle;rounded=1;orthogonalLoop=1;jettySize=auto;html=1;endArrow=none;endFill=0;strokeWidth=2;" edge="1" parent="1" source="wQEkFAXj18bgEXl9lPni-55">
          <mxGeometry relative="1" as="geometry">
            <mxPoint x="930" y="490" as="targetPoint"/>
          </mxGeometry>
        </mxCell>
        <mxCell id="6P5rHjWisykfpdkxlgF0-79" style="edgeStyle=orthogonalEdgeStyle;rounded=1;orthogonalLoop=1;jettySize=auto;html=1;entryX=0;entryY=0.5;entryDx=0;entryDy=0;endArrow=block;endFill=1;strokeWidth=3;exitX=0.75;exitY=1;exitDx=0;exitDy=0;fillColor=#dae8fc;strokeColor=#6c8ebf;" edge="1" parent="1" source="wQEkFAXj18bgEXl9lPni-55" target="wQEkFAXj18bgEXl9lPni-59">
          <mxGeometry relative="1" as="geometry">
            <Array as="points">
              <mxPoint x="980" y="460"/>
            </Array>
          </mxGeometry>
        </mxCell>
        <mxCell id="wQEkFAXj18bgEXl9lPni-55" value="TIPBOARD" style="rounded=1;fillColor=#10739E;strokeColor=none;shadow=1;gradientColor=none;fontStyle=1;fontColor=#FFFFFF;fontSize=14;" parent="1" vertex="1">
          <mxGeometry x="830" y="350" width="200" height="60" as="geometry"/>
        </mxCell>
        <mxCell id="42" value="" style="edgeStyle=elbowEdgeStyle;elbow=vertical;strokeWidth=2;endArrow=block;endFill=1;fontStyle=1;strokeColor=#82b366;fillColor=#d5e8d4;entryX=0.625;entryY=0.2;entryDx=0;entryDy=0;entryPerimeter=0;" parent="1" target="wQEkFAXj18bgEXl9lPni-62" edge="1">
          <mxGeometry y="165.5" width="100" height="100" as="geometry">
            <mxPoint x="590.0000000000002" y="675.5" as="sourcePoint"/>
            <mxPoint x="590" y="705.5" as="targetPoint"/>
          </mxGeometry>
        </mxCell>
        <mxCell id="46" value="" style="edgeStyle=elbowEdgeStyle;elbow=vertical;strokeWidth=2;endArrow=none;endFill=0;fontStyle=1;strokeColor=#d79b00;fillColor=#ffe6cc;entryX=0.5;entryY=0;entryDx=0;entryDy=0;" parent="1" edge="1" target="6P5rHjWisykfpdkxlgF0-73">
          <mxGeometry x="62" y="129.5" width="100" height="100" as="geometry">
            <mxPoint x="932" y="639.5" as="sourcePoint"/>
            <mxPoint x="932" y="669.4999999999998" as="targetPoint"/>
          </mxGeometry>
        </mxCell>
        <mxCell id="54" value="" style="edgeStyle=elbowEdgeStyle;elbow=vertical;strokeWidth=3;endArrow=block;endFill=1;fontStyle=1;strokeColor=#82b366;fillColor=#d5e8d4;exitX=0.25;exitY=1;exitDx=0;exitDy=0;" parent="1" source="wQEkFAXj18bgEXl9lPni-55" edge="1">
          <mxGeometry x="-40" y="165.5" width="100" height="100" as="geometry">
            <mxPoint x="710" y="405.5" as="sourcePoint"/>
            <mxPoint x="590.0000000000002" y="615.5" as="targetPoint"/>
            <Array as="points">
              <mxPoint x="590" y="555.5"/>
            </Array>
          </mxGeometry>
        </mxCell>
        <mxCell id="55" value="" style="edgeStyle=elbowEdgeStyle;elbow=vertical;strokeWidth=3;endArrow=block;endFill=1;fontStyle=1;strokeColor=#d79b00;fillColor=#ffe6cc;exitX=0.5;exitY=1;exitDx=0;exitDy=0;" parent="1" source="wQEkFAXj18bgEXl9lPni-55" edge="1">
          <mxGeometry x="22" y="133.5" width="100" height="100" as="geometry">
            <mxPoint x="900" y="500" as="sourcePoint"/>
            <mxPoint x="930" y="580" as="targetPoint"/>
            <Array as="points">
              <mxPoint x="920" y="480"/>
              <mxPoint x="942" y="488"/>
              <mxPoint x="942" y="523.5"/>
            </Array>
          </mxGeometry>
        </mxCell>
        <mxCell id="wQEkFAXj18bgEXl9lPni-57" value="&lt;div style=&quot;font-size: 15px&quot;&gt;Master&lt;/div&gt;&lt;div&gt;branch&lt;br&gt;&lt;/div&gt;" style="shape=process;whiteSpace=wrap;html=1;backgroundOutline=1;fillColor=#d5e8d4;strokeColor=#82b366;" parent="1" vertex="1">
          <mxGeometry x="530" y="610" width="120" height="60" as="geometry"/>
        </mxCell>
        <mxCell id="6P5rHjWisykfpdkxlgF0-75" style="edgeStyle=orthogonalEdgeStyle;rounded=1;orthogonalLoop=1;jettySize=auto;html=1;entryX=0.5;entryY=0;entryDx=0;entryDy=0;endArrow=none;endFill=0;strokeWidth=2;fillColor=#fff2cc;strokeColor=#d6b656;" edge="1" parent="1" source="wQEkFAXj18bgEXl9lPni-58" target="6P5rHjWisykfpdkxlgF0-70">
          <mxGeometry relative="1" as="geometry"/>
        </mxCell>
        <mxCell id="6P5rHjWisykfpdkxlgF0-76" style="edgeStyle=orthogonalEdgeStyle;rounded=1;orthogonalLoop=1;jettySize=auto;html=1;endArrow=none;endFill=0;strokeWidth=2;exitX=0.5;exitY=1;exitDx=0;exitDy=0;fillColor=#fff2cc;strokeColor=#d6b656;" edge="1" parent="1" source="wQEkFAXj18bgEXl9lPni-58">
          <mxGeometry relative="1" as="geometry">
            <mxPoint x="840" y="698" as="targetPoint"/>
          </mxGeometry>
        </mxCell>
        <mxCell id="wQEkFAXj18bgEXl9lPni-58" value="&lt;font style=&quot;font-size: 15px&quot;&gt;develop&lt;/font&gt;&lt;div&gt;branch&lt;br&gt;&lt;/div&gt;" style="shape=process;whiteSpace=wrap;html=1;backgroundOutline=1;fillColor=#fff2cc;strokeColor=#d6b656;" parent="1" vertex="1">
          <mxGeometry x="870" y="578" width="120" height="59" as="geometry"/>
        </mxCell>
        <mxCell id="6P5rHjWisykfpdkxlgF0-82" style="edgeStyle=orthogonalEdgeStyle;rounded=1;orthogonalLoop=1;jettySize=auto;html=1;entryX=1;entryY=0.75;entryDx=0;entryDy=0;endArrow=block;endFill=1;strokeWidth=2;" edge="1" parent="1" source="wQEkFAXj18bgEXl9lPni-59" target="6P5rHjWisykfpdkxlgF0-80">
          <mxGeometry relative="1" as="geometry"/>
        </mxCell>
        <mxCell id="6P5rHjWisykfpdkxlgF0-83" style="edgeStyle=orthogonalEdgeStyle;rounded=1;orthogonalLoop=1;jettySize=auto;html=1;entryX=0.5;entryY=0;entryDx=0;entryDy=0;endArrow=block;endFill=1;strokeWidth=2;fillColor=#dae8fc;strokeColor=#6c8ebf;" edge="1" parent="1" source="wQEkFAXj18bgEXl9lPni-59" target="6P5rHjWisykfpdkxlgF0-81">
          <mxGeometry relative="1" as="geometry"/>
        </mxCell>
        <mxCell id="wQEkFAXj18bgEXl9lPni-59" value="&lt;font style=&quot;font-size: 16px&quot;&gt;wip&lt;/font&gt;&lt;div&gt;branch&lt;br&gt;&lt;/div&gt;" style="shape=process;whiteSpace=wrap;html=1;backgroundOutline=1;fillColor=#dae8fc;strokeColor=#6c8ebf;" parent="1" vertex="1">
          <mxGeometry x="1083" y="430" width="120" height="60" as="geometry"/>
        </mxCell>
        <mxCell id="wQEkFAXj18bgEXl9lPni-78" style="edgeStyle=orthogonalEdgeStyle;rounded=0;orthogonalLoop=1;jettySize=auto;html=1;entryX=0.519;entryY=0.191;entryDx=0;entryDy=0;entryPerimeter=0;strokeWidth=2;fillColor=#d5e8d4;strokeColor=#82b366;" parent="1" source="wQEkFAXj18bgEXl9lPni-61" target="wQEkFAXj18bgEXl9lPni-75" edge="1">
          <mxGeometry relative="1" as="geometry">
            <Array as="points">
              <mxPoint x="712" y="810"/>
              <mxPoint x="712" y="810"/>
            </Array>
          </mxGeometry>
        </mxCell>
        <mxCell id="wQEkFAXj18bgEXl9lPni-61" value="&lt;div&gt;Github&lt;/div&gt;&lt;div&gt;Actions&lt;br&gt;&lt;/div&gt;" style="ellipse;shape=cloud;whiteSpace=wrap;html=1;" parent="1" vertex="1">
          <mxGeometry x="635" y="720" width="120" height="80" as="geometry"/>
        </mxCell>
        <mxCell id="wQEkFAXj18bgEXl9lPni-77" style="edgeStyle=orthogonalEdgeStyle;rounded=0;orthogonalLoop=1;jettySize=auto;html=1;exitX=0.55;exitY=0.95;exitDx=0;exitDy=0;exitPerimeter=0;entryX=0.505;entryY=0.226;entryDx=0;entryDy=0;entryPerimeter=0;strokeWidth=2;fillColor=#d5e8d4;strokeColor=#82b366;" parent="1" source="wQEkFAXj18bgEXl9lPni-62" target="wQEkFAXj18bgEXl9lPni-73" edge="1">
          <mxGeometry relative="1" as="geometry"/>
        </mxCell>
        <mxCell id="wQEkFAXj18bgEXl9lPni-62" value="Gitlab-CI" style="ellipse;shape=cloud;whiteSpace=wrap;html=1;" parent="1" vertex="1">
          <mxGeometry x="515" y="720" width="120" height="80" as="geometry"/>
        </mxCell>
        <mxCell id="wQEkFAXj18bgEXl9lPni-72" value="C.D" style="edgeStyle=orthogonalEdgeStyle;rounded=0;orthogonalLoop=1;jettySize=auto;html=1;entryX=0.508;entryY=0.25;entryDx=0;entryDy=0;entryPerimeter=0;strokeWidth=2;fillColor=#d5e8d4;strokeColor=#82b366;" parent="1" source="wQEkFAXj18bgEXl9lPni-65" target="wQEkFAXj18bgEXl9lPni-70" edge="1">
          <mxGeometry relative="1" as="geometry"/>
        </mxCell>
        <mxCell id="wQEkFAXj18bgEXl9lPni-65" value="CircleCI" style="ellipse;shape=cloud;whiteSpace=wrap;html=1;" parent="1" vertex="1">
          <mxGeometry x="395" y="720" width="120" height="80" as="geometry"/>
        </mxCell>
        <mxCell id="wQEkFAXj18bgEXl9lPni-67" value="" style="edgeStyle=elbowEdgeStyle;elbow=vertical;strokeWidth=2;endArrow=block;endFill=1;fontStyle=1;strokeColor=#82b366;fillColor=#d5e8d4;entryX=0.625;entryY=0.2;entryDx=0;entryDy=0;entryPerimeter=0;exitX=0.5;exitY=1;exitDx=0;exitDy=0;" parent="1" source="wQEkFAXj18bgEXl9lPni-57" target="wQEkFAXj18bgEXl9lPni-65" edge="1">
          <mxGeometry x="10" y="175.5" width="100" height="100" as="geometry">
            <mxPoint x="600.0000000000002" y="685.5" as="sourcePoint"/>
            <mxPoint x="595" y="746" as="targetPoint"/>
            <Array as="points">
              <mxPoint x="500" y="700"/>
            </Array>
          </mxGeometry>
        </mxCell>
        <mxCell id="wQEkFAXj18bgEXl9lPni-68" value="" style="edgeStyle=elbowEdgeStyle;elbow=vertical;strokeWidth=2;endArrow=block;endFill=1;fontStyle=1;strokeColor=#82b366;fillColor=#d5e8d4;exitX=0.5;exitY=1;exitDx=0;exitDy=0;entryX=0.625;entryY=0.2;entryDx=0;entryDy=0;entryPerimeter=0;" parent="1" source="wQEkFAXj18bgEXl9lPni-57" target="wQEkFAXj18bgEXl9lPni-61" edge="1">
          <mxGeometry x="195" y="175.5" width="100" height="100" as="geometry">
            <mxPoint x="775" y="670" as="sourcePoint"/>
            <mxPoint x="590" y="736" as="targetPoint"/>
            <Array as="points">
              <mxPoint x="685" y="700"/>
            </Array>
          </mxGeometry>
        </mxCell>
        <mxCell id="wQEkFAXj18bgEXl9lPni-70" value="" style="verticalLabelPosition=bottom;verticalAlign=top;html=1;shape=mxgraph.basic.8_point_star" parent="1" vertex="1">
          <mxGeometry x="404" y="830" width="100" height="100" as="geometry"/>
        </mxCell>
        <mxCell id="wQEkFAXj18bgEXl9lPni-71" value="&amp;nbsp;Pypi" style="text;html=1;strokeColor=none;fillColor=none;align=center;verticalAlign=middle;whiteSpace=wrap;rounded=0;" parent="1" vertex="1">
          <mxGeometry x="427" y="864" width="50" height="30" as="geometry"/>
        </mxCell>
        <mxCell id="wQEkFAXj18bgEXl9lPni-73" value="" style="verticalLabelPosition=bottom;verticalAlign=top;html=1;shape=mxgraph.basic.8_point_star" parent="1" vertex="1">
          <mxGeometry x="530" y="829" width="100" height="100" as="geometry"/>
        </mxCell>
        <mxCell id="wQEkFAXj18bgEXl9lPni-74" value="Docker HUB" style="text;html=1;strokeColor=none;fillColor=none;align=center;verticalAlign=middle;whiteSpace=wrap;rounded=0;" parent="1" vertex="1">
          <mxGeometry x="548" y="864" width="50" height="30" as="geometry"/>
        </mxCell>
        <mxCell id="wQEkFAXj18bgEXl9lPni-75" value="" style="verticalLabelPosition=bottom;verticalAlign=top;html=1;shape=mxgraph.basic.8_point_star" parent="1" vertex="1">
          <mxGeometry x="660" y="830" width="100" height="100" as="geometry"/>
        </mxCell>
        <mxCell id="wQEkFAXj18bgEXl9lPni-76" value="&lt;div&gt;Github&lt;/div&gt;&lt;div&gt;registry&lt;br&gt;&lt;/div&gt;" style="text;html=1;strokeColor=none;fillColor=none;align=center;verticalAlign=middle;whiteSpace=wrap;rounded=0;" parent="1" vertex="1">
          <mxGeometry x="683" y="864" width="50" height="30" as="geometry"/>
        </mxCell>
        <mxCell id="6P5rHjWisykfpdkxlgF0-62" style="edgeStyle=orthogonalEdgeStyle;rounded=1;orthogonalLoop=1;jettySize=auto;html=1;fillColor=#e1d5e7;strokeColor=#9673a6;entryX=0.875;entryY=0.5;entryDx=0;entryDy=0;entryPerimeter=0;endArrow=none;endFill=0;strokeWidth=2;" edge="1" parent="1" source="6P5rHjWisykfpdkxlgF0-55" target="6P5rHjWisykfpdkxlgF0-59">
          <mxGeometry relative="1" as="geometry">
            <mxPoint x="580" y="490" as="targetPoint"/>
            <Array as="points">
              <mxPoint x="610" y="400"/>
              <mxPoint x="610" y="520"/>
            </Array>
          </mxGeometry>
        </mxCell>
        <mxCell id="6P5rHjWisykfpdkxlgF0-63" style="edgeStyle=orthogonalEdgeStyle;rounded=1;orthogonalLoop=1;jettySize=auto;html=1;strokeWidth=2;fillColor=#e1d5e7;strokeColor=#9673a6;entryX=0.875;entryY=0.5;entryDx=0;entryDy=0;entryPerimeter=0;endArrow=none;endFill=0;" edge="1" parent="1" source="6P5rHjWisykfpdkxlgF0-55" target="6P5rHjWisykfpdkxlgF0-58">
          <mxGeometry relative="1" as="geometry">
            <Array as="points">
              <mxPoint x="600" y="400"/>
              <mxPoint x="600" y="420"/>
            </Array>
          </mxGeometry>
        </mxCell>
        <mxCell id="6P5rHjWisykfpdkxlgF0-64" style="edgeStyle=orthogonalEdgeStyle;rounded=1;orthogonalLoop=1;jettySize=auto;html=1;entryX=0.875;entryY=0.5;entryDx=0;entryDy=0;entryPerimeter=0;strokeWidth=2;fillColor=#e1d5e7;strokeColor=#9673a6;" edge="1" parent="1" source="6P5rHjWisykfpdkxlgF0-55" target="6P5rHjWisykfpdkxlgF0-57">
          <mxGeometry relative="1" as="geometry">
            <Array as="points">
              <mxPoint x="610" y="400"/>
              <mxPoint x="610" y="323"/>
              <mxPoint x="565" y="323"/>
            </Array>
          </mxGeometry>
        </mxCell>
        <mxCell id="6P5rHjWisykfpdkxlgF0-65" style="edgeStyle=orthogonalEdgeStyle;rounded=1;orthogonalLoop=1;jettySize=auto;html=1;strokeWidth=2;exitX=0;exitY=0.5;exitDx=0;exitDy=0;fillColor=#e1d5e7;strokeColor=#9673a6;" edge="1" parent="1" source="6P5rHjWisykfpdkxlgF0-55">
          <mxGeometry relative="1" as="geometry">
            <mxPoint x="550" y="240" as="targetPoint"/>
            <Array as="points">
              <mxPoint x="650" y="400"/>
              <mxPoint x="610" y="400"/>
              <mxPoint x="610" y="240"/>
            </Array>
          </mxGeometry>
        </mxCell>
        <mxCell id="6P5rHjWisykfpdkxlgF0-55" value="deploy&lt;div&gt;branch&lt;br&gt;&lt;/div&gt;" style="shape=process;whiteSpace=wrap;html=1;backgroundOutline=1;fillColor=#e1d5e7;strokeColor=#9673a6;" vertex="1" parent="1">
          <mxGeometry x="650" y="350" width="120" height="60" as="geometry"/>
        </mxCell>
        <mxCell id="6P5rHjWisykfpdkxlgF0-56" value="aws" style="ellipse;shape=cloud;whiteSpace=wrap;html=1;" vertex="1" parent="1">
          <mxGeometry x="460" y="200" width="120" height="80" as="geometry"/>
        </mxCell>
        <mxCell id="6P5rHjWisykfpdkxlgF0-57" value="azure" style="ellipse;shape=cloud;whiteSpace=wrap;html=1;" vertex="1" parent="1">
          <mxGeometry x="460" y="290" width="120" height="80" as="geometry"/>
        </mxCell>
        <mxCell id="6P5rHjWisykfpdkxlgF0-58" value="GCP" style="ellipse;shape=cloud;whiteSpace=wrap;html=1;" vertex="1" parent="1">
          <mxGeometry x="460" y="380" width="120" height="80" as="geometry"/>
        </mxCell>
        <mxCell id="6P5rHjWisykfpdkxlgF0-59" value="Openshift" style="ellipse;shape=cloud;whiteSpace=wrap;html=1;" vertex="1" parent="1">
          <mxGeometry x="460" y="480" width="120" height="80" as="geometry"/>
        </mxCell>
        <mxCell id="6P5rHjWisykfpdkxlgF0-70" value="CodeQuality" style="html=1;" vertex="1" parent="1">
          <mxGeometry x="980" y="702" width="80" height="55" as="geometry"/>
        </mxCell>
        <mxCell id="6P5rHjWisykfpdkxlgF0-73" value="UnitTest" style="html=1;" vertex="1" parent="1">
          <mxGeometry x="890" y="702" width="80" height="55" as="geometry"/>
        </mxCell>
        <mxCell id="6P5rHjWisykfpdkxlgF0-74" value="Coverage" style="html=1;" vertex="1" parent="1">
          <mxGeometry x="800" y="702" width="80" height="55" as="geometry"/>
        </mxCell>
        <mxCell id="6P5rHjWisykfpdkxlgF0-80" value="&lt;div&gt;Security&lt;/div&gt;&lt;div&gt;Scan&lt;br&gt;&lt;/div&gt;" style="html=1;" vertex="1" parent="1">
          <mxGeometry x="1004" y="520" width="80" height="55" as="geometry"/>
        </mxCell>
        <mxCell id="6P5rHjWisykfpdkxlgF0-81" value="CodeQuality" style="html=1;" vertex="1" parent="1">
          <mxGeometry x="1110" y="630" width="80" height="55" as="geometry"/>
        </mxCell>
      </root>
    </mxGraphModel>
  </diagram>
</mxfile>
